<svg xmlns="http://www.w3.org/2000/svg" viewBox="0 0 273.23 58.43">
    <defs>
        <style>.cls-1{fill:#577E6B;}</style>
    </defs>
    <title>Asset 21236</title>
    <g id="Layer_2" data-name="Layer 2">
        <g id="Layer_2-2" data-name="Layer 2">
            <path class="cls-1" d="M2.91,57.93a1.59,1.59,0,0,1-1.16.5,1.66,1.66,0,0,1-1.29-.5A1.77,1.77,0,0,1,0,56.69V2.08A1.7,1.7,0,0,1,1.74.33,1.7,1.7,0,0,1,3.49,2.08V56.69A2,2,0,0,1,2.91,57.93Z"/>
            <path class="cls-1" d="M53.37,55.61a1.59,1.59,0,0,1,.5,1.16,1.55,1.55,0,0,1-.5,1.2,1.66,1.66,0,0,1-1.16.46H21.75a1.55,1.55,0,0,1-1.2-.5,1.66,1.66,0,0,1-.46-1.16V2a1.59,1.59,0,0,1,.5-1.16,1.81,1.81,0,0,1,2.49,0A1.59,1.59,0,0,1,23.57,2V55.11H52.21A1.59,1.59,0,0,1,53.37,55.61Z"/>
            <path class="cls-1" d="M101.71,32.87a14.87,14.87,0,0,1,3.2,9.88q0,7.55-4.77,11.62A18.09,18.09,0,0,1,88,58.43H65.07a1.7,1.7,0,0,1-1.66-1.66V2a1.59,1.59,0,0,1,.5-1.16,1.59,1.59,0,0,1,1.16-.5H87.4Q94,.33,98,4.15t4,10.29a15.76,15.76,0,0,1-2.32,8.42,11.89,11.89,0,0,1-6.47,5.19A14.1,14.1,0,0,1,101.71,32.87ZM95.49,6.56q-3-2.9-8.51-2.9H66.9V27H87a11.39,11.39,0,0,0,8.34-3.36q3.19-3.28,3.2-9.25A10.31,10.31,0,0,0,95.49,6.56ZM97.61,52q3.82-3.11,3.82-9.25t-3.82-9.25q-3.82-3.11-10-3.11H66.9V55.11H87.56Q93.79,55.11,97.61,52Z"/>
            <path class="cls-1" d="M150.56,2.66,131.64,28.39V56.77a1.59,1.59,0,0,1-.5,1.16,1.81,1.81,0,0,1-2.49,0,1.59,1.59,0,0,1-.5-1.16V28.72l-19-26.06a1.67,1.67,0,0,1-.33-1.08A1.46,1.46,0,0,1,109.35.5a1.73,1.73,0,0,1,1.2-.5A1.6,1.6,0,0,1,112,.75l17.93,24.48L147.82.75A1.6,1.6,0,0,1,149.23,0a1.5,1.5,0,0,1,1.2.54,1.64,1.64,0,0,1,.46,1A2.59,2.59,0,0,1,150.56,2.66Z"/>
            <path class="cls-1" d="M212.64.87A1.61,1.61,0,0,1,213.06,2V56.77a1.54,1.54,0,0,1-.54,1.16,1.74,1.74,0,0,1-1.2.5,1.69,1.69,0,0,1-1.25-.5,1.59,1.59,0,0,1-.5-1.16V7.14L188.16,39.51a1.3,1.3,0,0,1-1.16.66,1.45,1.45,0,0,1-1.33-.66L164.17,7.06V56.77a1.7,1.7,0,0,1-1.66,1.66,1.55,1.55,0,0,1-1.2-.5,1.66,1.66,0,0,1-.46-1.16V2a1.72,1.72,0,0,1,.46-1.12,1.41,1.41,0,0,1,1.12-.54,1.76,1.76,0,0,1,1.58.75l23,34.2,23-34.2a1.54,1.54,0,0,1,1.58-.75A1.7,1.7,0,0,1,212.64.87Z"/>
            <path class="cls-1" d="M272.82.79a1.61,1.61,0,0,1,.42,1.12v54.7a1.65,1.65,0,0,1-1.74,1.83,1.58,1.58,0,0,1-1.33-.66l-37.35-51V57a1.3,1.3,0,0,1-.46,1,1.6,1.6,0,0,1-1.12.42,1.57,1.57,0,0,1-1.16-.42,1.35,1.35,0,0,1-.42-1V2a1.6,1.6,0,0,1,.46-1.25,1.5,1.5,0,0,1,1-.42,1.58,1.58,0,0,1,1.25.58l37.68,51.38V1.91a1.52,1.52,0,0,1,.46-1.12,1.52,1.52,0,0,1,1.12-.46A1.5,1.5,0,0,1,272.82.79Z"/>
        </g>
    </g>
</svg>